<svg width="90.000000" height="109.000000" viewBox="0 0 90 109" fill="none" xmlns="http://www.w3.org/2000/svg" xmlns:xlink="http://www.w3.org/1999/xlink">
	<desc>
			Created with Pixso.
	</desc>
	<defs/>
	<path id="Vector" d="M46.14 81C47.51 49.7 32.62 39.15 20.87 32.61C23.73 20.72 34.02 14.3 34.02 " stroke="#FF5F04" stroke-opacity="1.000000" stroke-width="3.000000" stroke-linejoin="round" stroke-linecap="round"/>
	<path id="Vector" d="M43.66 12.96C43.66 12.96 38.87 19.51 34.57 19.64C34.57 19.64 33.17 7.68 33.71 5.27C37.21 1.82 44.73 1 49.03 1C53.33 1 56.77 3.45 57.36 8.82C61.45 8.86 65.32 10.46 66.13 11.96C65.86 15.78 62.2 17.73 58.65 18.87C55.11 20.01 52.21 21.87 52.21 23.69C52.21 25.51 53.17 32.38 59.19 33.33C65.21 34.29 74.73 36.79 74.73 45.02C74.73 53.25 71.45 51.89 71.45 59.95C71.45 68.02 72.45 66.2 72.45 70.32C72.45 74.45 70.87 78.08 69.3 " stroke="#FF5F04" stroke-opacity="1.000000" stroke-width="3.000000" stroke-linejoin="round" stroke-linecap="round"/>
	<path id="Vector" d="M61.2 79.78C61.2 79.78 62.99 72.75 62.99 69.41C62.99 66.08 59.64 61.74 56.11 57.98C53.06 54.74 45.12 57.56 45.41 65.99M70.39 37.18C78.4 37.88 83.99 31.94 79.26 24.78M20.87 32.61C21.37 34.48 21.78 38.24 21.78 38.24C19.03 38.24 16.54 40.21 14.99 41.07C11.81 42.84 8.47 43.43 8.59 46.61C9.74 49.16 14.88 49.45 18.61 49.39L18.53 51.16C14.81 54.16 7.8 60.89 7.8 69.17C7.8 78.81 16.14 80.51 20.87 80.51C25.6 80.51 49.18 70.42 41.45 " stroke="#FF5F04" stroke-opacity="1.000000" stroke-width="3.000000" stroke-linejoin="round"/>
	<path id="Vector" d="M1.5 53.59C3.72 53.77 6.15 54.07 6.15 57.04C6.15 60.01 1 62.8 1 69.77C1 76.75 6.53 80.51 20.87 80.51M72.23 67.76C70.87 63.29 64.71 58.38 62.99 57.65C61.27 56.92 61.17 64.29 62.42 " stroke="#FF5F04" stroke-opacity="1.000000" stroke-width="3.000000" stroke-linejoin="round"/>
	<path id="ZooExpress" d="M10.56 106L10.56 104.34L4.19 104.34L10.37 96.8L10.37 95.5L1.72 95.5L1.72 97.14L7.79 97.14L1.61 104.69L1.61 106L10.56 106ZM39.57 106L39.57 104.36L33.65 104.36L33.65 101.47L38.72 101.47L38.72 99.86L33.65 99.86L33.65 97.13L39.36 97.13L39.36 95.5L31.7 95.5L31.7 106L39.57 106Z" fill="#FF6006" fill-opacity="1.000000" fill-rule="evenodd"/>
	<path id="ZooExpress" d="M13.81 105.69Q14.7 106.1 15.77 106.1Q16.91 106.1 17.83 105.65Q17.9 105.62 17.97 105.58Q18.53 105.28 18.95 104.84Q19.26 104.51 19.49 104.11Q19.6 103.94 19.68 103.75Q20.04 102.95 20.04 101.99Q20.04 101.02 19.68 100.22Q19.59 100.05 19.49 99.88Q19.27 99.49 18.97 99.18Q18.55 98.73 17.97 98.42Q17.89 98.38 17.81 98.34Q16.9 97.89 15.77 97.89Q14.71 97.89 13.83 98.3Q13.7 98.35 13.58 98.42Q13.01 98.73 12.59 99.17Q12.29 99.49 12.06 99.88Q11.96 100.04 11.88 100.21Q11.51 101.01 11.51 101.99Q11.51 102.96 11.88 103.77Q11.96 103.95 12.06 104.11Q12.3 104.52 12.61 104.85Q13.03 105.28 13.58 105.58Q13.69 105.64 13.81 105.69ZM23.49 105.69Q24.37 106.1 25.45 106.1Q26.59 106.1 27.51 105.65Q27.58 105.62 27.65 105.58Q28.21 105.28 28.62 104.84Q28.94 104.51 29.17 104.11Q29.27 103.94 29.36 103.75Q29.72 102.95 29.72 101.99Q29.72 101.02 29.35 100.22Q29.27 100.05 29.17 99.88Q28.94 99.49 28.64 99.18Q28.22 98.73 27.65 98.42Q27.57 98.38 27.49 98.34Q26.57 97.89 25.45 97.89Q24.38 97.89 23.51 98.3Q23.38 98.35 23.26 98.42Q22.69 98.73 22.27 99.17Q21.96 99.49 21.73 99.88Q21.64 100.04 21.56 100.21Q21.19 101.01 21.19 101.99Q21.19 102.96 21.55 103.77Q21.63 103.95 21.73 104.11Q21.97 104.52 22.29 104.85Q22.7 105.28 23.26 105.58Q23.37 105.64 23.49 105.69ZM56.51 98.31Q55.66 97.89 54.6 97.89Q53.78 97.89 53.1 98.18Q52.74 98.33 52.44 98.56Q52.17 98.77 51.95 99.03L51.95 97.99L50.17 97.99L50.17 108.91L52.04 108.91L52.04 105.02Q52.35 105.37 52.73 105.61Q53.51 106.1 54.6 106.1Q55.67 106.1 56.53 105.68Q56.61 105.64 56.7 105.59Q57.11 105.37 57.44 105.05Q57.85 104.66 58.15 104.14Q58.17 104.11 58.18 104.07Q58.67 103.16 58.67 101.99Q58.67 100.82 58.18 99.91Q58.16 99.88 58.15 99.85Q57.86 99.34 57.46 98.96Q57.12 98.64 56.7 98.41Q56.6 98.36 56.51 98.31ZM62.59 98.72Q62.39 98.92 62.24 99.15L62.24 97.99L60.46 97.99L60.46 106L62.33 106L62.33 102.11Q62.33 100.94 62.91 100.31Q62.93 100.29 62.95 100.27Q63.05 100.16 63.17 100.07Q63.75 99.63 64.66 99.63Q64.85 99.63 65.09 99.68L65.09 97.89Q63.43 97.89 62.59 98.72ZM74.11 102.59Q74.13 102.23 74.13 102.04Q74.13 100.81 73.61 99.87Q73.34 99.36 72.94 98.98Q72.6 98.65 72.18 98.41Q72.07 98.36 71.96 98.3Q71.12 97.89 70.08 97.89Q69.1 97.89 68.28 98.26Q68.11 98.33 67.95 98.42Q67.47 98.69 67.1 99.06Q66.74 99.42 66.48 99.88Q66.37 100.07 66.29 100.26Q65.95 101.05 65.95 101.99Q65.95 102.96 66.31 103.77Q66.39 103.95 66.49 104.11Q66.69 104.45 66.95 104.74Q67.4 105.24 68.04 105.58Q69.05 106.1 70.37 106.1Q71.41 106.1 72.23 105.77Q72.83 105.53 73.28 105.12Q73.45 104.97 73.6 104.79L72.59 103.64Q72.28 103.96 71.91 104.16Q71.26 104.51 70.41 104.51Q69.47 104.51 68.81 104.08Q68.74 104.04 68.68 103.99Q68.39 103.77 68.19 103.48Q67.92 103.1 67.82 102.59L74.11 102.59ZM77.09 105.98Q77.74 106.1 78.41 106.1Q80.09 106.1 81.06 105.43Q81.62 105.04 81.86 104.52Q82.04 104.11 82.04 103.63Q82.04 102.8 81.63 102.34Q81.62 102.32 81.6 102.3Q81.38 102.08 81.13 101.92Q80.86 101.75 80.54 101.64Q79.92 101.45 78.96 101.3Q78 101.14 77.55 100.95Q77.28 100.84 77.17 100.64Q77.09 100.5 77.09 100.31Q77.09 100.18 77.13 100.07Q77.22 99.83 77.52 99.66Q77.95 99.41 78.77 99.41Q79.74 99.41 80.56 99.76Q80.82 99.87 81.07 100.01L81.78 98.59Q81.26 98.27 80.43 98.08Q79.61 97.89 78.78 97.89Q77.17 97.89 76.21 98.58Q75.71 98.94 75.47 99.44Q75.26 99.87 75.26 100.4Q75.26 101.22 75.67 101.71Q75.69 101.73 75.72 101.76Q75.99 102.05 76.32 102.23Q76.54 102.36 76.8 102.44Q77.42 102.63 78.41 102.78Q79.36 102.93 79.78 103.1Q80.03 103.2 80.13 103.37Q80.21 103.51 80.21 103.68Q80.21 103.88 80.13 104.03Q79.84 104.57 78.53 104.57Q77.8 104.57 77.04 104.35Q76.28 104.14 75.74 103.78L75.02 105.2Q75.58 105.59 76.5 105.85Q76.8 105.93 77.09 105.98ZM84.82 105.98Q85.47 106.1 86.14 106.1Q87.81 106.1 88.79 105.43Q89.34 105.04 89.58 104.52Q89.77 104.11 89.77 103.63Q89.77 102.8 89.36 102.34Q89.34 102.32 89.32 102.3Q89.11 102.08 88.85 101.92Q88.58 101.75 88.26 101.64Q87.65 101.45 86.69 101.3Q85.73 101.14 85.27 100.95Q85 100.84 84.89 100.64Q84.81 100.5 84.81 100.31Q84.81 100.18 84.86 100.07Q84.95 99.83 85.24 99.66Q85.67 99.41 86.49 99.41Q87.46 99.41 88.28 99.76Q88.54 99.87 88.79 100.01L89.51 98.59Q88.99 98.27 88.16 98.08Q87.33 97.89 86.51 97.89Q84.89 97.89 83.94 98.58Q83.43 98.94 83.19 99.44Q82.99 99.87 82.99 100.4Q82.99 101.22 83.39 101.71Q83.42 101.73 83.44 101.76Q83.71 102.05 84.04 102.23Q84.27 102.36 84.52 102.44Q85.14 102.63 86.14 102.78Q87.08 102.93 87.51 103.1Q87.75 103.2 87.86 103.37Q87.93 103.51 87.93 103.68Q87.93 103.88 87.85 104.03Q87.57 104.57 86.25 104.57Q85.52 104.57 84.76 104.35Q84 104.14 83.47 103.78L82.74 105.2Q83.3 105.59 84.23 105.85Q84.52 105.93 84.82 105.98ZM44.61 103.22L46.67 106L48.78 106L45.65 101.9L48.65 97.99L46.62 97.99L44.66 100.61L42.69 97.99L40.61 97.99L43.6 101.93L40.48 106L42.54 106L44.61 103.22ZM68.97 99.65Q69.46 99.4 70.08 99.4Q70.74 99.4 71.24 99.67Q71.44 99.78 71.62 99.94Q71.84 100.13 71.99 100.37Q72.27 100.79 72.35 101.34L67.81 101.34Q67.9 100.75 68.21 100.31Q68.36 100.1 68.56 99.93Q68.75 99.76 68.97 99.65ZM16.92 104.23Q16.41 104.49 15.77 104.49Q15.12 104.49 14.62 104.22Q14.32 104.06 14.07 103.81Q13.92 103.65 13.8 103.48Q13.4 102.87 13.4 101.99Q13.4 101.12 13.8 100.51Q13.92 100.33 14.07 100.18Q14.32 99.91 14.62 99.75Q15.13 99.48 15.77 99.48Q16.41 99.48 16.91 99.75Q17.22 99.91 17.48 100.18Q17.64 100.34 17.76 100.53Q18.15 101.13 18.15 101.99Q18.15 102.85 17.76 103.46Q17.64 103.64 17.48 103.81Q17.22 104.07 16.92 104.23ZM26.59 104.23Q26.09 104.49 25.45 104.49Q24.79 104.49 24.29 104.22Q23.99 104.06 23.74 103.81Q23.59 103.65 23.48 103.48Q23.08 102.87 23.08 101.99Q23.08 101.12 23.47 100.51Q23.59 100.33 23.74 100.18Q23.99 99.91 24.3 99.75Q24.8 99.48 25.45 99.48Q26.08 99.48 26.58 99.75Q26.9 99.91 27.16 100.18Q27.32 100.34 27.44 100.53Q27.83 101.13 27.83 101.99Q27.83 102.85 27.43 103.46Q27.31 103.64 27.16 103.81Q26.9 104.07 26.59 104.23ZM55.55 104.22Q55.05 104.49 54.4 104.49Q53.86 104.49 53.41 104.3Q53.29 104.25 53.18 104.19Q52.99 104.08 52.84 103.95Q52.53 103.68 52.33 103.31Q52.01 102.74 52.01 101.99Q52.01 101.24 52.33 100.67Q52.54 100.29 52.85 100.02Q53 99.89 53.18 99.79Q53.29 99.73 53.41 99.68Q53.86 99.48 54.4 99.48Q55.04 99.48 55.54 99.75Q55.85 99.91 56.1 100.18Q56.25 100.33 56.37 100.51Q56.76 101.12 56.76 101.99Q56.76 102.87 56.36 103.48Q56.25 103.65 56.1 103.81Q55.85 104.06 55.55 104.22Z" fill="#000000" fill-opacity="1.000000" fill-rule="evenodd"/>
</svg>
